# xmcd CD database file
#
# Track frame offsets:
#	150
#	16750
#	37953
#	58792
#	76246
#	89568
#	107257
#	125981
#	142059
#	158759
#	173446
#	192553
#	210042
#
# Disc length: 3004 seconds
#
# Revision: 0
# Processed by: cddbd v1.4PL0 Copyright (c) Steve Scherf et al.
# Submitted via: CDex 1.50Beta7
#
DISCID=a20bba0d
DTITLE=Vários - Especial Sertanejo Vol 36
DYEAR=1900
DGENRE=Country
TTITLE0=Rick e Renner - Você Decide
TTITLE1=Chitãozinho e Xororó - Os Caipiras
TTITLE2=Zezé di Camargo e Luciano - Aonde Você Foi Parar
TTITLE3=Dallas Company - Clima de Rodeio
TTITLE4=Leonardo - Ei Psiu!!!
TTITLE5=Rick e Renner - Nois Engripa Mas Não Sai
TTITLE6=Chitãozinho e Xororó - Coração Vazio
TTITLE7=Zezé di Camargo e Luciano - Baby Come Back
TTITLE8=Dallas Company - Dança de Cawboy
TTITLE9=Leonardo - Te Amo Demais
TTITLE10=Milionario e José Rico - A Carta
TTITLE11=Leonardo - Amarrado e Carimbado
TTITLE12=Milionário e José Rico - O Dono do Mundo
EXTD=
EXTT0=
EXTT1=
EXTT2=
EXTT3=
EXTT4=
EXTT5=
EXTT6=
EXTT7=
EXTT8=
EXTT9=
EXTT10=
EXTT11=
EXTT12=
PLAYORDER=
